# xmcd
#
# Track frame offsets: 
#        150
#        30184
#        72060
#        80450
#        119604
#        145683
#        161542
#        198558
#        209756
#        235512
#
# Disc length: 4332 seconds
#
# Revision: 0
# Processed by: cddbd v1.5.1PL0 Copyright (c) Steve Scherf et al.
# Submitted via: ExactAudioCopy v0.95a5
#
DISCID=8210ea0a
DTITLE=Jimi Hendrix - Blues Outtakes [CD2]
DYEAR=1900
DGENRE=Bootleg
TTITLE0=Jelly 292
TTITLE1=Voodoo Chile Blues
TTITLE2=Strato Strut
TTITLE3=Country Blues - Astro Man
TTITLE4=Things I Used To Do
TTITLE5=Bleeding Heart
TTITLE6=Hear My Train A Comin'
TTITLE7=Belly Button Window
TTITLE8=It's Too Bad
TTITLE9=Villanova Junction Jam
EXTD=
EXTT0=
EXTT1=
EXTT2=
EXTT3=
EXTT4=
EXTT5=
EXTT6=
EXTT7=
EXTT8=
EXTT9=
PLAYORDER=
